PathFileType	4	(X/Y/Z)	/Users/niels/Desktop/University/Third Semester/Perception and Action/Exam/Gymnastics Motion Tracking/Code for Gym Tracking/Analyzed Data/Webcam_Backflip/id8_4_baseline_Sports2D/id8_4_baseline_Sports2D_px_person00.trc
DataRate	CameraRate	NumFrames	NumMarkers	Units	OrigDataRate	OrigDataStartFrame	OrigNumFrames
29.81132075471698	29.81132075471698	9	22	m	29.81132075471698	19	159
Frame#	Time	Hip			RHip			RKnee			RAnkle			RBigToe			RSmallToe			RHeel			LHip			LKnee			LAnkle			LBigToe			LSmallToe			LHeel			Neck			Head			Nose			RShoulder			RElbow			RWrist			LShoulder			LElbow			LWrist		
		X1	Y1	Z1	X2	Y2	Z2	X3	Y3	Z3	X4	Y4	Z4	X5	Y5	Z5	X6	Y6	Z6	X7	Y7	Z7	X8	Y8	Z8	X9	Y9	Z9	X10	Y10	Z10	X11	Y11	Z11	X12	Y12	Z12	X13	Y13	Z13	X14	Y14	Z14	X15	Y15	Z15	X16	Y16	Z16	X17	Y17	Z17	X18	Y18	Z18	X19	Y19	Z19	X20	Y20	Z20	X21	Y21	Z21	X22	Y22	Z22
19	0.6373417721518987	0.9720098379808866	-0.5972471069742495	0.0	0.9733688784741965	-0.5979465405050157	0.0	1.0046360294792156	-0.6928275260770315	0.0	0.9802084018489827	-0.7878384027461899	0.0	0.9929886070751573	-0.8130531713679888	0.0	0.9859935464467261	-0.815538715804841	0.0	0.971650958663117	-0.803027078122061	0.0	0.9697592486599752	-0.5955483427559487	0.0	0.9997915059442334	-0.6907018349558889	0.0	0.9789992828529763	-0.7854401701649929	0.0	0.9960100817968125	-0.8029857272670352	0.0	0.9878052649017507	-0.8037483015125445	0.0	0.9696039316258791	-0.7945575601267765	0.0	0.9483027866821395	-0.47823915629939173	0.0	0.9366630738780448	-0.41123924616622715	0.0	0.9597233105558788	-0.438263941446711	0.0	0.9498612070023734	-0.4835008215126777	0.0	0.9773112945774078	-0.4263626336140054	0.0	0.9963751463307771	-0.3781750502961588	0.0	0.9440704489184877	-0.48006757339789263	0.0	0.9720312659701267	-0.4269878756643571	0.0	0.9881858239483928	-0.380554463499627	0.0
20	0.6708860759493671	0.974726761486013	-0.5648376102732584	0.0	0.976480169460326	-0.5664315321825479	0.0	1.0117072090667063	-0.6577980230640348	0.0	0.9863860755790268	-0.7562390472940987	0.0	0.99616539757077	-0.7870227546764416	0.0	0.9895961013791138	-0.788803962019563	0.0	0.9774451833959331	-0.7716571683282104	0.0	0.972339219769867	-0.5639712580081401	0.0	1.0061447961362942	-0.6556728549296408	0.0	0.9845980497586716	-0.7538950980761979	0.0	0.9987982653435417	-0.776094181852585	0.0	0.9906343730474351	-0.7777807212987061	0.0	0.9748466594509531	-0.7641339353410886	0.0	0.9375473312377037	-0.44990946057317466	0.0	0.9207841544103705	-0.38298735751364393	0.0	0.9442031337814518	-0.408598028965405	0.0	0.9385194801926835	-0.4530620231015251	0.0	0.9502436954022672	-0.38490246958650115	0.0	0.9562745126533984	-0.3292161544624514	0.0	0.9334437744053666	-0.45046515823108385	0.0	0.9468916551901748	-0.3871939594962925	0.0	0.9490747369572403	-0.333908014634336	0.0
21	0.7044303797468354	0.9753690836225224	-0.531032697658113	0.0	0.9773989242382158	-0.5336256385433906	0.0	1.023288978287927	-0.6148490700153358	0.0	0.9959478649856489	-0.7160384556504497	0.0	1.003227236129862	-0.7524610869907653	0.0	0.9974594116782187	-0.7531244236063371	0.0	0.9865678693080119	-0.7307381386717198	0.0	0.9733280797480467	-0.5306325787754018	0.0	1.0171076809594806	-0.612192575335175	0.0	0.9938542153035276	-0.7133630175592253	0.0	1.0056598083055448	-0.7409719072179126	0.0	0.9974260694971898	-0.7434816228909938	0.0	0.9831464773244796	-0.7245599336956927	0.0	0.9255874482061337	-0.42059834353959114	0.0	0.9046238272751256	-0.35422579890293304	0.0	0.9285290919174874	-0.3782734973640295	0.0	0.9262912648763747	-0.42246657517913755	0.0	0.9249499306771483	-0.3494022419445144	0.0	0.9205143437609313	-0.2901310158095158	0.0	0.9219350112038945	-0.42038087167849897	0.0	0.9238656570447318	-0.3525183819627315	0.0	0.9149629318495829	-0.29614587193504854	0.0
22	0.7379746835443037	0.9742662305382711	-0.4992121911583296	0.0	0.9764807231818423	-0.5027093921313414	0.0	1.0367906073557724	-0.5657621901660083	0.0	1.0087853516681238	-0.6685170545105089	0.0	1.0149769158846893	-0.7090701363987842	0.0	1.0102828771510488	-0.708632820504158	0.0	0.9992262475492931	-0.6819602583326486	0.0	0.9728158924759159	-0.4987564316586611	0.0	1.030203902677863	-0.5621661234943619	0.0	1.0066368401938997	-0.6653753991354769	0.0	1.0175745914849454	-0.697517404948239	0.0	1.0097498802617009	-0.7005947331441835	0.0	0.9950115680207134	-0.677354379131309	0.0	0.9127890917039787	-0.3933154570892145	0.0	0.8878958565362083	-0.32827313302183564	0.0	0.9128918217343732	-0.3504129771127595	0.0	0.9138727793006843	-0.39482546045754563	0.0	0.9058937615103135	-0.32153034451431517	0.0	0.8960121951983365	-0.26097047885325275	0.0	0.9100610649976592	-0.3928582051508409	0.0	0.9065694418681916	-0.32450991274192176	0.0	0.8920397424772364	-0.26740094128186515	0.0
23	0.7715189873417722	0.9722976406486591	-0.4716538184900625	0.0	0.974715908078796	-0.4757800328056128	0.0	1.0482075412469738	-0.5126422642600632	0.0	1.0240068287749684	-0.6154745825024797	0.0	1.0316171680342272	-0.6569506647540753	0.0	1.0281186927984645	-0.6558984585753092	0.0	1.014983015167143	-0.6278396308543969	0.0	0.9712977768222069	-0.47067607494168767	0.0	1.0413549533597455	-0.5082435414531175	0.0	1.0218312160321548	-0.6117862982582917	0.0	1.034046669227763	-0.6458033772448762	0.0	1.0274677256411824	-0.6491711759568831	0.0	1.0103110365633319	-0.6245799473107221	0.0	0.9001600847987966	-0.37072744470633184	0.0	0.8704252293254388	-0.3085932562987874	0.0	0.8976056740895199	-0.3277524377537964	0.0	0.9024118613027334	-0.37250627626235916	0.0	0.8957459048456636	-0.30200524782355326	0.0	0.8860404026406048	-0.24112627185218402	0.0	0.8987271810424311	-0.3705429224384065	0.0	0.8968896363606511	-0.3040712856757787	0.0	0.882856613607065	-0.24730774853739576	0.0
24	0.8050632911392405	0.9706543627946328	-0.44904487623821315	0.0	0.9733738738834236	-0.4533935471294088	0.0	1.053434579118354	-0.45807516069793097	0.0	1.0398263102434027	-0.5589479432853927	0.0	1.0517074402371032	-0.5970410985170478	0.0	1.0494289748461627	-0.5961558219103352	0.0	1.0324308112575435	-0.5709542004063635	0.0	0.9696395941234237	-0.44723914700634143	0.0	1.0463537438454877	-0.4537263211634831	0.0	1.0374771723525864	-0.5547594040296724	0.0	1.0524613603875097	-0.5865406031867747	0.0	1.0479730060485974	-0.590052853719093	0.0	1.0278551735552937	-0.5686567339116267	0.0	0.8888702438274848	-0.35456056391210156	0.0	0.8528561143252775	-0.2978318381797558	0.0	0.8832292834381363	-0.31210655110271607	0.0	0.8930021551607777	-0.35653411715695077	0.0	0.8947079421247057	-0.29077155605180716	0.0	0.8895042589083489	-0.22996342649892276	0.0	0.8889271951618009	-0.35499868121471395	0.0	0.8946743263675916	-0.2916075304279976	0.0	0.8860249179059265	-0.23565773855725394	0.0
25	0.8386075949367088	0.9704992551495898	-0.4306093722191389	0.0	0.9735403734294853	-0.4347031799704145	0.0	1.0495817113103751	-0.4053859738303349	0.0	1.0535670022365633	-0.5009306342257078	0.0	1.0715483030557795	-0.5311157293090226	0.0	1.0705014967728148	-0.5312816414418604	0.0	1.0489654944820785	-0.5132839815031205	0.0	0.9688712146940333	-0.42794649728165035	0.0	1.0424177351770445	-0.4024025832321673	0.0	1.0509574740958942	-0.4965662852417835	0.0	1.0684520028536943	-0.5215587978927609	0.0	1.066800787239327	-0.5251735025740493	0.0	1.0451101407593757	-0.5117561903092118	0.0	0.8798186516914265	-0.34552078932891317	0.0	0.8367428874387961	-0.2972918743279997	0.0	0.8703770133035158	-0.3045553945127586	0.0	0.8862894775670335	-0.3468264841309176	0.0	0.9007801877914638	-0.28706440030017527	0.0	0.9018631062823884	-0.22675463271796217	0.0	0.8815088941088179	-0.34667968854770354	0.0	0.8981986620459659	-0.28701831992953797	0.0	0.8973412467125402	-0.23226897573530855	0.0
26	0.8721518987341772	0.9725721513220186	-0.414636371571844	0.0	0.9757663817713559	-0.4179822264118497	0.0	1.035832748230363	-0.35842765793229175	0.0	1.0621000342338054	-0.4434756546389769	0.0	1.0860350024543488	-0.4618575832128022	0.0	1.0862503979945755	-0.46396080478977053	0.0	1.0611550934134577	-0.45631117333693305	0.0	0.9698862380256362	-0.41149931307649623	0.0	1.0291002541080787	-0.3580505134799427	0.0	1.0593943609556327	-0.4395143172907949	0.0	1.077524479823379	-0.4540616681198442	0.0	1.079262408331658	-0.457696186176304	0.0	1.0585936239530613	-0.45555556125218244	0.0	0.8736818148133229	-0.3435790026374077	0.0	0.8241643404334112	-0.3070423116587669	0.0	0.8596397999352058	-0.3058298105347006	0.0	0.8825321787712289	-0.3428961249652297	0.0	0.9107902518171443	-0.28937789938384517	0.0	0.9170819043269699	-0.23026174231710964	0.0	0.8771623606586881	-0.34535125571491304	0.0	0.904968650126121	-0.28950049495469715	0.0	0.9115696927896157	-0.23641924265553155	0.0
27	0.9056962025316455	0.9767874710383263	-0.3992110314394955	0.0	0.9798325497203908	-0.4013516170141916	0.0	1.0135784013591467	-0.320829937874863	0.0	1.06269980316884	-0.3890106783111944	0.0	1.0904110472806745	-0.3932438019476014	0.0	1.0919108540305817	-0.39813100105477606	0.0	1.0656646417130942	-0.4016809933966645	0.0	0.9730889187042635	-0.39635033665251534	0.0	1.0083017421964753	-0.3236990275521729	0.0	1.0603287427551509	-0.3860862405652989	0.0	1.0768079511611488	-0.3885401383607782	0.0	1.0818382091179397	-0.392015196652182	0.0	1.0648765195862326	-0.4017153192152665	0.0	0.8711717787203321	-0.3481480613510606	0.0	0.8173870657652643	-0.32613053339590886	0.0	0.8519303626427733	-0.3161380018538096	0.0	0.881863749718875	-0.3442368779298416	0.0	0.9215236813567693	-0.2955902487405584	0.0	0.9297384620630733	-0.23864852312043416	0.0	0.8764924218870941	-0.35024871270165536	0.0	0.9125698825616382	-0.2974057367927844	0.0	0.9242423544860404	-0.24658212574555982	0.0
